<?xml version="1.0" encoding="UTF-8" standalone="no"?>
<svg
   version="1.1"
   viewBox="-5.0 -10.0 110.0 135.0"
   id="svg2"
   sodipodi:docname="noun_distributionpower_7554655.svg"
   inkscape:version="1.4.4 (dcaf3e7, 2026-05-05)"
   xmlns:inkscape="http://www.inkscape.org/namespaces/inkscape"
   xmlns:sodipodi="http://sodipodi.sourceforge.net/DTD/sodipodi-0.dtd"
   xmlns="http://www.w3.org/2000/svg"
   xmlns:svg="http://www.w3.org/2000/svg">
  <defs
     id="defs2" />
  <sodipodi:namedview
     id="namedview2"
     pagecolor="#ffffff"
     bordercolor="#000000"
     borderopacity="0.25"
     inkscape:showpageshadow="2"
     inkscape:pageopacity="0.0"
     inkscape:pagecheckerboard="0"
     inkscape:deskcolor="#d1d1d1"
     inkscape:zoom="6.3037037"
     inkscape:cx="55.047004"
     inkscape:cy="67.5"
     inkscape:window-width="1920"
     inkscape:window-height="1111"
     inkscape:window-x="-9"
     inkscape:window-y="-9"
     inkscape:window-maximized="1"
     inkscape:current-layer="svg2" />
  <path
     d="m50 23.441 7.6328 4.3984c-0.73828-0.23047-1.5273-0.28516-2.3281-0.125l-7.7891 1.4727-3.6836-2.1797zm-6.0312 9.0234 11.82-2.2305c1.7695-0.33594 3.1797 1.4414 2.4648 3.0859l-5.2227 11.941c-0.41016 0.94922 0.31641 2 1.3477 1.9492l1.9375-0.09375c1.0742-0.050782 1.8008 1.0625 1.3164 2.0195l-10.168 20.211c-0.42188 0.83203-1.6836 0.45312-1.5781-0.47266l1.707-14.969c0.09375-0.85156-0.58984-1.5898-1.4531-1.5469l-5.4844 0.25391c-0.89453 0.042969-1.5898-0.74609-1.4297-1.6328l2.957-16.707c0.16406-0.9375 0.84766-1.6328 1.7852-1.8086zm-2.6836-3.9922-4.3984 2.5352 3.0508 1.832c0.60156-1.4961 1.9141-2.5898 3.5469-2.8945l0.21094-0.042968zm17.379 10.285-1.8438 4.2227 2.5039 1.5039 0.050781 1.4414c0.11719 0.13672 0.22266 0.27344 0.31641 0.42188 0.76953 1.1914 0.85156 2.6719 0.22266 3.9375l-0.34766 0.69531 0.011719 0.26172 4.3477-3.125 0.074219-6.1992zm24.863 33.242-10.254-5.9141 2.2852-1.3281v-2.6406l10.254 5.9141-0.76953-3.4648c-0.27344-1.2305 0.50391-2.4414 1.7383-2.7148 1.2305-0.27344 2.4414 0.50391 2.7148 1.7383l1.8828 8.5352c0.25391 1.1562-0.42188 2.3164-1.5352 2.6641l-8.3359 2.6328c-1.1992 0.37891-2.4844-0.28516-2.8633-1.4844-0.37891-1.1992 0.28516-2.4844 1.4844-2.8633zm-31.242 6.1992v11.844l2.6211-2.3984c0.92578-0.85156 2.3672-0.78906 3.2227 0.14844 0.85156 0.92578 0.78906 2.3672-0.14844 3.2227l-6.4414 5.8945c-0.875 0.80078-2.2109 0.78906-3.0742 0l-6.4414-5.8945c-0.92578-0.85156-0.98828-2.293-0.14844-3.2227 0.85156-0.92578 2.293-0.98828 3.2227-0.14844l2.6211 2.3984-0.003906-11.844 2.2852 1.3281zm-25.559-12.113-10.254 5.9141 3.3906 1.0742c1.1992 0.37891 1.8633 1.6641 1.4844 2.8633s-1.6641 1.8633-2.8633 1.4844l-8.3359-2.6328c-1.1367-0.35937-1.7891-1.5273-1.5352-2.6641l1.8828-8.5352c0.27344-1.2305 1.4844-2 2.7148-1.7383 1.2305 0.27344 2 1.4844 1.7383 2.7148l-0.76953 3.4648 10.254-5.9141v2.6406zm-2.2969-28.203-10.254-5.9141 0.76953 3.4648c0.27344 1.2305-0.50391 2.4414-1.7383 2.7148-1.2305 0.27344-2.4414-0.50391-2.7148-1.7383l-1.8828-8.5352c-0.25391-1.1562 0.42188-2.3164 1.5352-2.6641l8.3359-2.6328c1.1992-0.37891 2.4844 0.28516 2.8633 1.4844s-0.28516 2.4844-1.4844 2.8633l-3.3906 1.0742 10.254 5.9141-2.2852 1.3281 0.003906 2.6406zm23.285-16.082v-11.844l-2.6211 2.3984c-0.92578 0.85156-2.3672 0.78906-3.2227-0.14844-0.85156-0.92578-0.78906-2.3672 0.14844-3.2227l6.4414-5.8945c0.875-0.80078 2.2109-0.78906 3.0742 0l6.4414 5.8945c0.92578 0.85156 0.98828 2.293 0.14844 3.2227-0.85156 0.92578-2.293 0.98828-3.2227 0.14844l-2.6211-2.3984v11.844l-2.2852-1.3281zm25.559 12.113 10.254-5.9141-3.3906-1.0742c-1.1992-0.37891-1.8633-1.6641-1.4844-2.8633s1.6641-1.8633 2.8633-1.4844l8.3359 2.6328c1.1367 0.35937 1.7891 1.5273 1.5352 2.6641l-1.8828 8.5352c-0.27344 1.2305-1.4844 2-2.7148 1.7383-1.2305-0.27344-2-1.4844-1.7383-2.7148l0.76953-3.4648-10.254 5.9141v-2.6406zm-13.852-5.0391 12.117 7-6.4297 3.7148-5.4102-3.1992 0.89453-2.0508c0.82812-1.8984 0.34375-4.0664-1.1719-5.4648zm-2.2422 26.863-7.4297 14.77c-0.73828 1.4727-2.4297 2.1992-4.0117 1.7266-1.5781-0.47266-2.5898-2-2.4102-3.6406l1.5469-13.602-4.1172 0.19141c-2.5156 0.11719-4.5273-2.125-4.0742-4.6406l1.0508-5.9141-10.746-6.2109v24.875l23.012 13.266 23-13.285v-24.863l-6.4414 3.7148-0.085938 7.3164-9.2852 6.6836zm-18.895-14.191 1.0742-6.0625-5.0117-3.0117-5.8945 3.3984z"
     fill-rule="evenodd"
     id="path1"
     style="fill:#8071ff;fill-opacity:1" />
</svg>
